# xmcd
#
# Track frame offsets:
#   150
#   27935
#   49540
#   72500
#   101595
#   126662
#   147180
#   172822
#   199190
#   222187
#   246607
#   270382
#   287387
#   311102
#
# Disc length: 4422 seconds
#
# Revision: 6
# Processed by: cddbd v1.5.1PL0 Copyright (c) Steve Scherf et al.
# Submitted via: Media_Universe 3.0
#
DISCID=d611440e
DTITLE=Bon Jovi - These Days
DYEAR=1995
DGENRE=Rock
TTITLE0=Hey God
TTITLE1=Something For The Pain
TTITLE2=This Ain't A Love Song
TTITLE3=These Days
TTITLE4=Lie To Me
TTITLE5=Damned
TTITLE6=My Guitar Lies Bleeding In My Arms
TTITLE7=(It's Hard) Letting You Go
TTITLE8=Hearts Breaking Even
TTITLE9=Something To Believe In
TTITLE10=If That's What It Takes
TTITLE11=Diamond Ring
TTITLE12=All I Want Is Everything
TTITLE13=Bitter Wine
EXTD=YEAR: 1995
EXTT0=
EXTT1=
EXTT2=
EXTT3=
EXTT4=
EXTT5=
EXTT6=
EXTT7=
EXTT8=
EXTT9=
EXTT10=
EXTT11=
EXTT12=
EXTT13=
PLAYORDER=
